<?xml version="1.0" standalone="no"?>
<!DOCTYPE svg PUBLIC "-//W3C//DTD SVG 20010904//EN"
 "http://www.w3.org/TR/2001/REC-SVG-20010904/DTD/svg10.dtd">
<svg version="1.0" xmlns="http://www.w3.org/2000/svg"
 width="1600.000000pt" height="1600.000000pt" viewBox="0 0 1600.000000 1600.000000"
 preserveAspectRatio="xMidYMid meet">
<metadata>
Created by potrace 1.11, written by Peter Selinger 2001-2013
</metadata>
<g transform="translate(0.000000,1600.000000) scale(0.100000,-0.100000)"
fill="#000000" stroke="none">
<path d="M7877 15604 c-1 -1 -81 -5 -177 -9 -96 -4 -191 -8 -210 -10 -19 -1
-78 -6 -130 -10 -52 -4 -103 -9 -113 -11 -10 -2 -48 -6 -85 -9 -37 -3 -94 -10
-127 -15 -33 -5 -82 -11 -110 -15 -27 -3 -61 -7 -75 -10 -14 -3 -41 -7 -60
-10 -19 -3 -46 -7 -60 -10 -14 -3 -41 -7 -60 -10 -30 -5 -69 -12 -155 -29
-164 -33 -379 -84 -568 -135 -147 -40 -474 -146 -602 -196 -11 -4 -72 -28
-135 -52 -321 -124 -625 -268 -979 -465 -77 -43 -129 -74 -281 -168 -137 -84
-168 -105 -140 -96 8 2 40 7 70 10 67 6 151 15 204 21 226 26 933 27 1097 0
13 -2 60 -6 103 -10 43 -4 88 -8 100 -11 11 -2 38 -6 61 -9 22 -3 81 -13 130
-21 50 -9 106 -18 125 -20 19 -3 51 -9 70 -14 19 -5 49 -11 65 -14 55 -10 298
-73 420 -109 195 -58 453 -154 603 -223 40 -19 75 -34 78 -34 3 0 67 -30 142
-67 123 -61 205 -103 371 -195 128 -70 353 -213 629 -397 161 -108 343 -228
405 -268 213 -137 341 -194 449 -199 57 -2 75 2 127 27 165 80 356 259 492
459 110 161 209 410 233 586 3 21 8 59 11 83 11 74 8 271 -4 361 -17 123 -55
275 -97 387 -91 246 -285 558 -481 771 l-58 64 -105 13 c-58 8 -134 16 -170
20 -36 3 -76 8 -90 10 -14 2 -65 7 -115 11 -49 3 -106 8 -125 9 -104 9 -667
24 -673 19z"/>
<path d="M9521 15423 c12 -21 28 -45 34 -53 31 -39 165 -269 225 -385 132
-258 233 -559 255 -760 4 -33 9 -71 11 -85 6 -36 5 -261 -2 -323 -50 -448
-286 -868 -764 -1363 l-98 -102 41 -37 c23 -21 78 -72 122 -114 45 -42 139
-130 210 -196 71 -66 141 -131 155 -145 14 -14 86 -81 160 -150 74 -69 144
-134 156 -145 19 -18 210 -197 293 -274 l34 -31 41 33 c22 18 129 103 236 188
107 85 276 219 375 297 99 79 195 156 214 170 19 15 51 41 71 57 21 17 79 62
130 100 50 39 97 75 103 80 18 16 396 297 451 336 27 19 76 53 110 77 363 257
799 519 1159 695 87 42 160 84 164 94 5 11 -16 37 -74 92 -175 167 -357 324
-543 471 -36 28 -72 56 -80 63 -43 35 -247 182 -330 238 -52 35 -97 66 -100
69 -12 13 -202 130 -211 130 -5 0 -9 5 -9 10 0 6 -4 10 -10 10 -5 0 -33 15
-62 33 -122 78 -363 209 -583 317 -197 97 -545 250 -569 250 -6 0 -16 4 -21 9
-21 18 -403 148 -650 221 -205 60 -619 160 -661 160 -3 0 4 -17 17 -37z"/>
<path d="M4138 14235 c-2 -1 -43 -5 -93 -9 -96 -7 -155 -13 -195 -21 -14 -3
-41 -7 -60 -10 -19 -3 -57 -10 -85 -15 -27 -6 -59 -12 -70 -14 -94 -18 -156
-42 -205 -79 -76 -56 -324 -250 -330 -257 -3 -4 -36 -33 -75 -65 -38 -32 -77
-65 -86 -74 -9 -9 -52 -47 -95 -85 -97 -86 -443 -431 -544 -544 -41 -46 -80
-89 -85 -95 -100 -109 -362 -441 -460 -582 -27 -38 -52 -72 -55 -75 -12 -10
-220 -330 -292 -450 -156 -259 -337 -609 -450 -870 -28 -63 -58 -133 -68 -155
-59 -132 -241 -652 -266 -760 -4 -16 -9 -34 -13 -40 -3 -5 -6 -14 -7 -20 -1
-5 -21 -81 -44 -169 -23 -87 -43 -166 -45 -175 -8 -34 -64 -297 -68 -321 -3
-14 -12 -63 -20 -110 -9 -47 -18 -103 -22 -125 -3 -22 -7 -51 -10 -65 -7 -45
-24 -177 -31 -236 -3 -33 -8 -62 -11 -66 -2 -5 -1 -8 4 -8 4 0 21 37 37 83
143 412 487 787 1006 1099 148 89 362 200 517 267 39 17 93 41 120 53 26 11
68 29 93 38 25 10 106 41 180 70 447 173 1232 396 1881 535 8 2 44 10 80 19
60 14 553 120 684 146 70 15 72 15 105 23 24 6 341 72 390 81 14 3 93 19 175
36 83 17 161 34 175 36 54 11 529 114 595 129 91 22 105 25 133 31 214 44 720
185 957 267 639 219 966 469 1014 776 8 50 6 61 -16 106 -229 457 -1302 1079
-2468 1430 -66 20 -127 38 -135 40 -8 2 -76 20 -151 39 -236 62 -561 127 -759
152 -30 3 -62 8 -70 9 -8 2 -51 6 -95 10 -44 4 -98 9 -120 12 -47 4 -542 12
-547 8z"/>
<path d="M13575 13138 c-181 -111 -547 -353 -800 -526 -44 -30 -107 -74 -140
-96 -33 -23 -65 -45 -71 -51 -6 -5 -50 -37 -98 -70 -272 -188 -1010 -738
-1172 -874 -17 -14 -48 -39 -69 -56 -34 -26 -223 -179 -280 -226 -11 -9 -71
-61 -134 -115 -63 -55 -127 -110 -144 -124 l-29 -25 51 -65 c29 -36 62 -78 76
-95 27 -35 561 -706 644 -810 31 -38 61 -77 68 -85 7 -8 49 -61 94 -118 45
-57 84 -101 88 -100 414 205 582 278 851 367 110 37 402 116 463 126 12 2 65
10 117 19 52 8 122 18 155 21 33 4 71 8 85 11 32 5 363 5 415 -1 192 -21 366
-57 510 -107 446 -153 830 -451 1177 -913 72 -96 192 -274 217 -323 7 -13 14
-22 16 -20 4 3 -6 81 -30 243 -3 22 -14 85 -25 140 -11 55 -22 116 -25 135 -3
19 -19 94 -36 165 -17 72 -32 141 -35 155 -3 14 -26 102 -51 195 -93 349 -255
804 -389 1092 -13 28 -24 54 -24 57 0 11 -178 371 -230 466 -29 52 -65 119
-81 148 -31 56 -45 80 -140 237 -86 144 -422 632 -449 655 -3 3 -37 45 -75 95
-39 49 -77 97 -85 106 -8 9 -44 52 -80 95 -36 43 -83 99 -106 124 -22 25 -67
74 -100 110 -32 36 -63 66 -69 67 -5 1 -32 -12 -60 -29z"/>
<path d="M8895 12074 c-27 -24 -93 -78 -145 -118 -440 -338 -1025 -607 -1817
-835 -128 -37 -530 -142 -593 -155 -14 -3 -106 -24 -205 -47 -99 -22 -187 -42
-197 -44 -9 -2 -148 -31 -310 -64 -161 -34 -327 -68 -368 -77 -41 -8 -133 -26
-205 -40 -167 -32 -141 -27 -420 -85 -132 -27 -256 -52 -275 -55 -19 -3 -64
-13 -100 -21 -36 -8 -76 -17 -90 -19 -14 -3 -33 -7 -42 -10 -10 -3 -30 -7 -45
-10 -35 -5 -232 -50 -338 -76 -44 -11 -91 -22 -105 -24 -43 -8 -410 -104 -520
-135 -269 -78 -644 -201 -755 -248 -11 -5 -78 -32 -150 -61 -131 -53 -483
-222 -585 -280 -221 -127 -454 -289 -609 -425 -76 -66 -272 -264 -326 -329
-144 -173 -252 -335 -349 -521 l-31 -60 0 -425 c0 -234 4 -465 8 -515 4 -49
10 -117 12 -150 3 -33 7 -80 10 -105 3 -25 7 -65 9 -90 10 -93 18 -166 22
-184 3 -16 19 -126 29 -201 14 -99 79 -420 120 -592 180 -751 484 -1490 888
-2158 62 -104 217 -346 227 -355 3 -3 25 -34 49 -70 46 -67 236 -326 255 -347
6 -6 49 -59 95 -117 47 -58 87 -106 91 -106 15 0 47 37 211 240 156 193 346
426 449 550 236 285 399 480 416 500 12 14 41 48 65 76 24 28 53 62 64 75 28
34 438 513 445 519 3 3 38 43 79 90 40 47 85 99 100 115 50 58 317 358 347
392 12 12 52 58 90 100 38 43 94 105 124 138 30 32 60 64 65 71 16 18 178 196
195 214 8 9 65 70 125 135 61 66 119 129 130 141 26 27 240 255 284 303 416
447 1368 1403 1907 1917 122 116 352 334 384 364 19 18 69 64 110 104 42 39
127 118 190 176 63 58 143 132 179 166 62 56 171 157 197 179 26 23 199 181
214 195 9 8 56 51 106 95 49 43 96 86 105 95 9 8 47 42 84 75 38 33 73 65 79
70 9 9 172 152 295 260 18 17 39 35 45 40 6 6 79 69 161 140 83 71 155 134
161 140 6 5 32 28 58 50 27 22 58 49 70 60 13 11 47 41 77 66 87 74 283 241
291 248 4 4 -239 253 -540 553 l-547 547 -50 -45z"/>
<path d="M10125 10507 c-309 -231 -521 -397 -785 -611 -186 -151 -495 -406
-534 -441 -6 -6 -56 -48 -111 -95 -55 -47 -102 -87 -105 -90 -3 -3 -21 -18
-40 -34 -19 -16 -66 -57 -105 -91 -38 -34 -135 -120 -215 -190 -80 -70 -165
-146 -190 -169 -80 -73 -265 -241 -276 -251 -6 -5 -66 -62 -134 -125 -67 -63
-132 -123 -143 -132 -11 -10 -97 -92 -191 -182 -94 -90 -200 -192 -236 -226
-221 -210 -906 -900 -1231 -1240 -161 -169 -227 -238 -384 -405 -61 -65 -339
-365 -386 -416 -13 -15 -62 -69 -109 -120 -47 -52 -112 -123 -145 -159 -65
-71 -192 -212 -222 -246 -10 -12 -50 -57 -89 -100 -80 -89 -297 -334 -390
-440 -33 -38 -112 -127 -175 -199 -90 -102 -376 -433 -569 -659 -14 -16 -30
-34 -35 -40 -11 -12 -281 -330 -306 -361 -10 -11 -50 -58 -89 -105 -40 -47
-92 -107 -115 -135 -24 -27 -140 -166 -259 -309 l-216 -258 37 -43 c21 -23
115 -118 208 -211 285 -284 531 -496 833 -719 70 -52 138 -103 152 -113 76
-58 378 -252 525 -339 645 -381 1308 -655 2024 -838 154 -39 161 -41 401 -89
205 -40 197 -39 410 -70 183 -27 307 -41 330 -37 32 4 245 116 333 173 587
384 1016 1058 1351 2121 91 287 254 904 292 1107 3 13 14 63 25 110 33 141 93
432 229 1105 165 823 206 1017 274 1310 324 1400 670 2246 1169 2855 90 109
311 328 409 404 82 64 83 66 36 116 -13 14 -59 70 -104 125 -117 146 -651 804
-685 845 -16 19 -62 76 -102 127 -39 51 -77 92 -82 93 -6 0 -132 -91 -280
-203z"/>
<path d="M13168 9985 c-2 -1 -39 -5 -83 -9 -87 -7 -100 -9 -220 -32 -293 -56
-541 -179 -715 -354 -33 -33 -47 -52 -93 -119 -31 -45 -9 -140 64 -285 62
-122 119 -216 516 -836 195 -306 361 -583 511 -852 148 -267 342 -658 418
-842 14 -33 33 -79 43 -101 79 -174 283 -770 316 -924 2 -9 19 -83 39 -166 19
-82 37 -166 40 -185 3 -19 8 -46 11 -60 2 -14 7 -36 10 -50 2 -14 7 -41 10
-60 3 -19 7 -46 10 -60 2 -14 7 -45 10 -70 3 -25 7 -61 10 -80 2 -19 7 -60 10
-90 4 -30 8 -66 10 -80 21 -143 22 -729 1 -860 -3 -14 -7 -57 -10 -96 -4 -39
-8 -80 -10 -91 -3 -11 -7 -44 -11 -73 -4 -29 -9 -62 -11 -74 -2 -12 -7 -37
-10 -56 -6 -39 -36 -182 -58 -275 -14 -60 -43 -167 -71 -260 l-15 -50 23 26
c51 58 113 133 127 153 8 12 21 27 28 35 57 59 452 617 452 639 0 6 4 12 8 14
7 2 40 54 97 150 6 9 22 36 36 60 267 449 510 981 678 1486 33 100 63 192 65
205 2 12 9 36 16 52 16 42 137 520 145 575 4 24 8 47 10 50 2 3 6 21 9 40 3
19 8 46 11 60 3 14 9 50 15 80 5 30 12 69 15 85 11 64 25 152 30 195 3 25 7
56 10 70 5 28 12 88 20 170 3 30 8 76 11 101 3 26 7 68 9 95 2 27 7 92 12 144
10 123 10 850 0 1000 -7 113 -8 117 -61 225 -30 61 -69 133 -87 160 -18 28
-47 73 -65 100 -132 205 -389 465 -619 625 -306 214 -712 387 -1045 444 -19 3
-45 8 -56 10 -12 2 -39 7 -60 10 -22 4 -52 9 -69 11 -85 14 -476 30 -487 20z"/>
<path d="M11470 9036 c-102 -35 -212 -95 -285 -156 -214 -177 -386 -432 -568
-840 -133 -299 -328 -944 -452 -1495 -30 -136 -33 -146 -41 -177 -3 -13 -7
-34 -10 -48 -5 -23 -19 -87 -30 -135 -3 -11 -7 -31 -10 -45 -2 -14 -9 -45 -14
-70 -6 -25 -12 -54 -15 -65 -2 -11 -15 -74 -30 -140 -26 -123 -83 -400 -92
-445 -2 -14 -9 -45 -14 -70 -6 -25 -13 -55 -15 -67 -9 -52 -15 -79 -64 -313
-28 -135 -53 -255 -56 -266 -2 -12 -13 -66 -25 -120 -11 -55 -23 -110 -25
-124 -3 -14 -11 -53 -19 -86 -8 -34 -16 -73 -19 -85 -2 -13 -11 -54 -20 -90
-8 -37 -17 -78 -20 -90 -96 -464 -302 -1237 -444 -1665 -170 -512 -353 -934
-562 -1294 -48 -84 -209 -330 -226 -345 -6 -5 -17 -21 -26 -35 -66 -104 -308
-359 -448 -470 -24 -19 -55 -44 -69 -56 l-24 -21 234 3 c214 2 374 8 519 19
157 13 192 16 270 25 147 17 173 21 235 30 33 5 78 12 100 15 23 3 52 7 65 10
13 3 40 7 60 10 38 6 70 12 110 20 14 3 36 7 50 10 427 81 925 225 1350 391
126 50 125 49 223 93 38 17 70 31 72 31 7 0 221 102 355 169 148 74 368 195
476 261 38 23 85 51 104 62 50 29 373 244 453 303 166 122 452 348 543 430 6
6 49 44 95 85 100 89 242 224 316 300 83 85 178 290 254 544 16 55 32 113 34
128 3 15 12 56 19 90 8 35 17 79 20 98 2 19 8 58 12 85 3 28 8 57 9 66 28 153
27 738 0 963 -2 16 -6 59 -10 94 -3 36 -8 68 -9 71 -2 3 -7 37 -11 76 -4 38
-8 72 -10 75 -1 3 -6 25 -9 50 -11 80 -70 380 -87 445 -6 22 -13 51 -16 65
-25 139 -236 835 -293 965 -4 11 -34 88 -65 170 -32 83 -66 168 -76 191 -10
22 -27 65 -39 94 -12 29 -29 72 -40 94 -10 23 -38 86 -63 141 -59 131 -192
402 -265 540 -119 223 -145 270 -155 284 -12 14 -18 24 -56 93 -40 73 -210
337 -295 458 -132 188 -272 357 -405 491 -125 126 -161 156 -197 164 -11 2
-37 9 -59 14 -84 20 -128 19 -195 -3z"/>
</g>
</svg>
